@startuml
'https://plantuml.com/class-diagram
left to right direction

rectangle 外卖平台{
}

class 订单状态{
    + 状态：int
}

class 送货订单{
+ 订单编号:string
+ 订单状态:int
+ 商家地址:string
+ 客户地址:string
+ 取餐时间:Date
+ 送达时间:Date
+ 订单创建时间:Date
}

class 订单{
+ 订单编号:string
+ 商家名:string
+ 客户ID:string
+ 订单创建时间:Date
}
class 订单分配状态{
    + 状态：int
}
class 店铺申请{
+ 订单编号:string
+ 商家名:string
+ 审核状态:int
+ 审核申请时间时间:Date
+ 审核确认时间时间:Date
}

class 审核状态{
    + 状态：int
}

class 骑手用户{
+ 姓名:string
+ 电话:string
+ 地址:string
+  头像:string
}

送货订单 "0..*" -- "1" 订单状态
店铺申请 "0..*" -- "1" 审核状态
订单"0..*" -- "1"订单分配状态
外卖平台 "1" -- "0..*" 订单
外卖平台 "1" -- "0..*" 店铺申请
外卖平台 "1" -- "0..*" 送货订单
外卖平台 "1" -- "0..*" 骑手用户

note top of 订单状态 :"订单状态为0代表未取餐，1代表已取餐未送达，2代表送达"
note top of 订单分配状态 :"分配状态为0代表未分配，1代表已分配"
note top of 审核状态 :"审核状态为0代表未审核，1代表已审核未通过，2代表已通过"

@enduml