@startuml
'https://plantuml.com/class-diagram

'abstract class AbstractList
'abstract AbstractCollection
'interface List
'interface Collection
left to right direction

class 订单状态{
    + 状态：int
}

class 送货订单{
+ 订单编号:string
+ 订单状态:int
+ 商家地址:string
+ 客户地址:string
+ 取餐时间:Date
+ 送达时间:Date
+ 订单创建时间:Date
}

class 骑手用户{
+ 姓名:string
+ 电话:string
+ 地址:string
+  头像:string
}
rectangle 骑手{
}

骑手 "1" -- "1" 骑手用户
骑手 "1" -- "0..*" 送货订单
送货订单 "0..*" -- "1" 订单状态

note right of 订单状态 :"订单状态为0代表未取餐，1代表已取餐未送达，2代表送达"


@enduml